<svg width="64" height="64" xmlns="http://www.w3.org/2000/svg">

 <g>
  <title>background</title>
  <rect fill="none" id="canvas_background" height="402" width="582" y="-1" x="-1"/>
 </g>
 <g>
  <title>Layer 1</title>
  <path id="svg_1" d="m32,5c14.888,0 27,12.112 27,27s-12.112,27 -27,27s-27,-12.112 -27,-27s12.112,-27 27,-27m0,-3c-16.567,0 -30,13.432 -30,30c0,16.568 13.433,30 30,30s30,-13.432 30,-30c0,-16.568 -13.433,-30 -30,-30l0,0z"/>
  <path id="svg_2" d="m43.987,28.745l-15.974,-10.513c-2.757,-1.814 -5.013,-0.597 -5.013,2.703l0,22.125c0,3.3 2.259,4.521 5.021,2.714l15.959,-10.444c2.761,-1.809 2.764,-4.771 0.007,-6.585zm-2.129,4.379l-14.185,9.283c-0.92,0.603 -1.673,0.196 -1.673,-0.904l0,-19.012c0,-1.1 0.752,-1.505 1.671,-0.9l14.19,9.338c0.919,0.604 0.918,1.592 -0.003,2.195z"/>
 </g>
</svg>